<svg id="Layer_1" data-name="Layer 1" xmlns="http://www.w3.org/2000/svg" viewBox="0 0 100 100"><defs><style>.cls-1{fill:#fff;}</style></defs><path d="M44.53,61.59A40.4,40.4,0,0,1,11.86,40.28,43.73,43.73,0,0,1,36.4,32.85,42.54,42.54,0,0,1,46.46,34a48.08,48.08,0,0,0-3.07,17A50.81,50.81,0,0,0,44.53,61.59Z"/><path class="cls-1" d="M36.4,33.35a42.51,42.51,0,0,1,9.4,1A48.43,48.43,0,0,0,42.89,51a51.46,51.46,0,0,0,1,10A39.92,39.92,0,0,1,12.51,40.45a43.23,43.23,0,0,1,23.89-7.1m0-1a44.23,44.23,0,0,0-25.19,7.77,40.67,40.67,0,0,0,33.95,22A50.32,50.32,0,0,1,43.89,51a47.52,47.52,0,0,1,3.24-17.35A42.92,42.92,0,0,0,36.4,32.35Z"/><path d="M84,4.19a40.09,40.09,0,0,1-9.85,47A45.37,45.37,0,0,0,48.48,33,47.48,47.48,0,0,1,84,4.19m.58-1.11A48.41,48.41,0,0,0,47.13,33.69,44.6,44.6,0,0,1,74,52.7,41.09,41.09,0,0,0,84.62,3.08Z"/><path d="M73.75,54.19a43.46,43.46,0,0,1,6.56,23.06,42.4,42.4,0,0,1-4.13,18.51,47.84,47.84,0,0,1-29.7-32.49c.39,0,.78,0,1.16,0a42,42,0,0,0,26.11-9.1M74,52.7a40.71,40.71,0,0,1-26.34,9.59,13,13,0,0,1-2.48-.16A48.69,48.69,0,0,0,76.69,97a43.67,43.67,0,0,0,4.62-19.75A44.38,44.38,0,0,0,74,52.7Z"/><path d="M74.09,52A44.91,44.91,0,0,0,47.8,33.34,48,48,0,0,1,84.33,3.64,40.58,40.58,0,0,1,74.09,52Z"/><path class="cls-1" d="M84,4.19a40.09,40.09,0,0,1-9.85,47A45.37,45.37,0,0,0,48.48,33,47.48,47.48,0,0,1,84,4.19m.58-1.11A48.41,48.41,0,0,0,47.13,33.69,44.6,44.6,0,0,1,74,52.7,41.09,41.09,0,0,0,84.62,3.08Z"/><path d="M47.75,34.87A43.44,43.44,0,0,1,72.65,52.5a39.94,39.94,0,0,1-25,8.79c-.57,0-1.12,0-1.65,0A49.48,49.48,0,0,1,44.89,51a46.64,46.64,0,0,1,2.86-16.17m-.62-1.18A47.52,47.52,0,0,0,43.89,51a50.32,50.32,0,0,0,1.27,11.09,13,13,0,0,0,2.48.16A40.71,40.71,0,0,0,74,52.7a44.6,44.6,0,0,0-26.85-19Z"/><path d="M44.53,61.59A40.4,40.4,0,0,1,11.86,40.28,43.73,43.73,0,0,1,36.4,32.85,42.54,42.54,0,0,1,46.46,34a48.08,48.08,0,0,0-3.07,17A50.81,50.81,0,0,0,44.53,61.59Z"/><path class="cls-1" d="M36.4,33.35a42.51,42.51,0,0,1,9.4,1A48.43,48.43,0,0,0,42.89,51a51.46,51.46,0,0,0,1,10A39.92,39.92,0,0,1,12.51,40.45a43.23,43.23,0,0,1,23.89-7.1m0-1a44.23,44.23,0,0,0-25.19,7.77,40.67,40.67,0,0,0,33.95,22A50.32,50.32,0,0,1,43.89,51a47.52,47.52,0,0,1,3.24-17.35A42.92,42.92,0,0,0,36.4,32.35Z"/><path d="M76.44,96.38A48.34,48.34,0,0,1,45.82,62.73c.62.06,1.23.06,1.82.06a41.43,41.43,0,0,0,26.23-9.35,43.93,43.93,0,0,1,6.94,23.81A42.87,42.87,0,0,1,76.44,96.38Z"/><path class="cls-1" d="M73.75,54.19a43.46,43.46,0,0,1,6.56,23.06,42.4,42.4,0,0,1-4.13,18.51,47.84,47.84,0,0,1-29.7-32.49c.39,0,.78,0,1.16,0a42,42,0,0,0,26.11-9.1M74,52.7a40.71,40.71,0,0,1-26.34,9.59,13,13,0,0,1-2.48-.16A48.69,48.69,0,0,0,76.69,97a43.67,43.67,0,0,0,4.62-19.75A44.38,44.38,0,0,0,74,52.7Z"/></svg>